<svg xmlns="http://www.w3.org/2000/svg" xmlns:xlink="http://www.w3.org/1999/xlink"><symbol id="fb" viewBox="0 0 8 18"><path d="M7.678 8.983H5.305V18H1.71V8.983H0v-3.17h1.71v-2.05C1.71 2.296 2.38 0 5.337 0L8 .012v3.076H6.068c-.317 0-.763.164-.763.863v1.866h2.687l-.314 3.166z" fill="#0e101f"/></symbol><symbol id="insta" viewBox="0 0 18 18"><path d="M12.744 18H5.256A5.262 5.262 0 010 12.744V5.256A5.262 5.262 0 015.256 0h7.488A5.262 5.262 0 0118 5.256v7.488A5.262 5.262 0 0112.744 18zM5.256 1.525a3.735 3.735 0 00-3.73 3.73v7.49a3.735 3.735 0 003.73 3.73h7.488a3.735 3.735 0 003.73-3.73v-7.49a3.735 3.735 0 00-3.73-3.73H5.256zM9 13.881A4.887 4.887 0 014.119 9 4.887 4.887 0 019 4.119 4.887 4.887 0 0113.881 9 4.887 4.887 0 019 13.881zm0-8.237A3.36 3.36 0 005.644 9 3.36 3.36 0 009 12.356 3.36 3.36 0 0012.356 9 3.36 3.36 0 009 5.644zm5.585-1.53a.698.698 0 11-1.397 0 .698.698 0 011.397 0z" fill="#0e101f"/></symbol><symbol id="tw" viewBox="0 0 18 15"><path d="M18 1.776a7.226 7.226 0 01-2.121.595A3.782 3.782 0 0017.503.277a7.283 7.283 0 01-2.345.918A3.647 3.647 0 0012.462 0c-2.04 0-3.693 1.696-3.693 3.787 0 .297.032.585.096.863-3.07-.158-5.79-1.666-7.612-3.957-.318.559-.5 1.21-.5 1.904 0 1.313.652 2.473 1.642 3.152a3.598 3.598 0 01-1.672-.475v.049c0 1.834 1.273 3.365 2.962 3.712a3.594 3.594 0 01-1.667.066c.47 1.504 1.833 2.599 3.45 2.63A7.294 7.294 0 010 13.299 10.259 10.259 0 005.66 15c6.793 0 10.508-5.77 10.508-10.775 0-.164-.004-.327-.011-.49A7.597 7.597 0 0018 1.776z" fill="#0e101f"/></symbol></svg>